<svg xmlns="http://www.w3.org/2000/svg" xmlns:xlink="http://www.w3.org/1999/xlink" width="110" zoomAndPan="magnify" viewBox="0 0 82.5 30.000001" height="40" preserveAspectRatio="xMidYMid meet" version="1.0"><defs><g/><clipPath id="375a5c698b"><path d="M 1.089844 0 L 35 0 L 35 29.03125 L 1.089844 29.03125 Z M 1.089844 0 " clip-rule="nonzero"/></clipPath><clipPath id="7a84081e8f"><path d="M 9.402344 0 L 28.070312 0 L 28.070312 18.933594 L 9.402344 18.933594 Z M 9.402344 0 " clip-rule="nonzero"/></clipPath><clipPath id="2c544c06cf"><path d="M 24 3 L 33.535156 3 L 33.535156 11 L 24 11 Z M 24 3 " clip-rule="nonzero"/></clipPath><clipPath id="cda15f5b18"><path d="M 19.523438 -0.90625 L 33.472656 6.296875 L 24.882812 22.929688 L 10.933594 15.722656 Z M 19.523438 -0.90625 " clip-rule="nonzero"/></clipPath><clipPath id="4d12ba63d1"><path d="M 19.523438 -0.90625 L 33.472656 6.296875 L 24.882812 22.929688 L 10.933594 15.722656 Z M 19.523438 -0.90625 " clip-rule="nonzero"/></clipPath><clipPath id="f6f5496e88"><path d="M 11 7 L 25 7 L 25 17 L 11 17 Z M 11 7 " clip-rule="nonzero"/></clipPath><clipPath id="521ecdd6f4"><path d="M 19.523438 -0.90625 L 33.472656 6.296875 L 24.882812 22.929688 L 10.933594 15.722656 Z M 19.523438 -0.90625 " clip-rule="nonzero"/></clipPath><clipPath id="6826467bbd"><path d="M 19.523438 -0.90625 L 33.472656 6.296875 L 24.882812 22.929688 L 10.933594 15.722656 Z M 19.523438 -0.90625 " clip-rule="nonzero"/></clipPath><clipPath id="76840f6548"><rect x="0" width="34" y="0" height="30"/></clipPath></defs><g fill="#2563eb" fill-opacity="1"><g transform="translate(25.791796, 22.166826)"><g><path d="M 3.734375 0.6875 C 2.984375 0.6875 2.328125 0.546875 1.761719 0.257812 C 1.1875 -0.0351562 0.746094 -0.425781 0.441406 -0.910156 C 0.132812 -1.402344 -0.0234375 -1.921875 -0.0234375 -2.476562 L -0.0234375 -3.132812 L 3.328125 -3.132812 L 3.328125 -2.488281 C 3.328125 -2.417969 3.359375 -2.351562 3.425781 -2.289062 C 3.496094 -2.21875 3.617188 -2.1875 3.792969 -2.1875 C 3.941406 -2.1875 4.046875 -2.210938 4.117188 -2.265625 C 4.144531 -2.289062 4.15625 -2.316406 4.15625 -2.355469 C 4.15625 -2.367188 4.152344 -2.378906 4.140625 -2.386719 C 4.058594 -2.449219 3.941406 -2.496094 3.792969 -2.519531 L 3.78125 -2.523438 L 2.921875 -2.703125 L 3.039062 -3.246094 L 2.945312 -2.699219 C 2.285156 -2.8125 1.675781 -3.074219 1.121094 -3.488281 C 0.488281 -3.960938 0.171875 -4.664062 0.171875 -5.601562 C 0.171875 -6.546875 0.515625 -7.285156 1.210938 -7.816406 C 1.859375 -8.3125 2.675781 -8.558594 3.660156 -8.558594 C 4.390625 -8.558594 5.023438 -8.425781 5.566406 -8.160156 C 6.121094 -7.890625 6.546875 -7.523438 6.839844 -7.066406 C 7.136719 -6.605469 7.285156 -6.109375 7.285156 -5.585938 L 7.285156 -4.957031 L 3.933594 -4.957031 L 3.933594 -5.558594 C 3.933594 -5.617188 3.90625 -5.675781 3.851562 -5.738281 C 3.8125 -5.78125 3.726562 -5.800781 3.585938 -5.800781 C 3.460938 -5.800781 3.371094 -5.78125 3.320312 -5.742188 C 3.304688 -5.726562 3.296875 -5.703125 3.296875 -5.660156 C 3.296875 -5.65625 3.296875 -5.648438 3.296875 -5.648438 C 3.300781 -5.640625 3.308594 -5.632812 3.324219 -5.621094 C 3.414062 -5.550781 3.574219 -5.496094 3.804688 -5.453125 L 3.816406 -5.449219 L 4.746094 -5.242188 C 5.457031 -5.082031 6.0625 -4.789062 6.5625 -4.367188 C 7.121094 -3.890625 7.402344 -3.230469 7.402344 -2.386719 C 7.402344 -1.753906 7.234375 -1.199219 6.890625 -0.722656 C 6.558594 -0.257812 6.109375 0.0976562 5.539062 0.339844 C 4.996094 0.574219 4.394531 0.6875 3.734375 0.6875 Z M 3.734375 -0.421875 C 4.242188 -0.421875 4.699219 -0.507812 5.101562 -0.679688 C 5.480469 -0.84375 5.777344 -1.070312 5.988281 -1.367188 C 6.191406 -1.652344 6.292969 -1.992188 6.292969 -2.386719 C 6.292969 -2.886719 6.140625 -3.265625 5.84375 -3.519531 C 5.484375 -3.824219 5.035156 -4.039062 4.5 -4.15625 L 3.582031 -4.363281 L 3.707031 -4.90625 L 3.605469 -4.359375 C 3.195312 -4.433594 2.871094 -4.5625 2.640625 -4.746094 C 2.335938 -4.984375 2.1875 -5.289062 2.1875 -5.660156 C 2.1875 -6.054688 2.332031 -6.371094 2.621094 -6.605469 C 2.878906 -6.8125 3.199219 -6.914062 3.585938 -6.914062 C 4.058594 -6.914062 4.425781 -6.765625 4.683594 -6.472656 C 4.925781 -6.199219 5.046875 -5.894531 5.046875 -5.558594 L 5.046875 -5.511719 L 4.492188 -5.511719 L 4.492188 -6.070312 L 6.730469 -6.070312 L 6.730469 -5.511719 L 6.171875 -5.511719 L 6.171875 -5.585938 C 6.171875 -5.894531 6.082031 -6.1875 5.90625 -6.464844 C 5.722656 -6.75 5.449219 -6.980469 5.078125 -7.164062 C 4.6875 -7.351562 4.21875 -7.449219 3.660156 -7.449219 C 2.925781 -7.449219 2.335938 -7.277344 1.886719 -6.933594 C 1.484375 -6.625 1.28125 -6.179688 1.28125 -5.601562 C 1.28125 -5.039062 1.449219 -4.628906 1.785156 -4.378906 C 2.199219 -4.074219 2.648438 -3.878906 3.132812 -3.792969 L 3.144531 -3.792969 L 3.996094 -3.613281 L 3.882812 -3.066406 L 3.972656 -3.617188 C 4.300781 -3.5625 4.578125 -3.449219 4.808594 -3.277344 C 5.117188 -3.046875 5.269531 -2.738281 5.269531 -2.355469 C 5.269531 -1.960938 5.113281 -1.640625 4.808594 -1.394531 C 4.539062 -1.179688 4.199219 -1.074219 3.792969 -1.074219 C 3.316406 -1.074219 2.9375 -1.214844 2.652344 -1.492188 C 2.359375 -1.773438 2.214844 -2.105469 2.214844 -2.488281 L 2.214844 -2.578125 L 2.773438 -2.578125 L 2.773438 -2.023438 L 0.535156 -2.023438 L 0.535156 -2.578125 L 1.089844 -2.578125 L 1.089844 -2.476562 C 1.089844 -2.136719 1.1875 -1.8125 1.382812 -1.503906 C 1.578125 -1.191406 1.875 -0.933594 2.269531 -0.730469 C 2.671875 -0.527344 3.160156 -0.421875 3.734375 -0.421875 Z M 3.734375 -0.421875 "/></g></g></g><g fill="#2563eb" fill-opacity="1"><g transform="translate(33.093607, 22.166826)"><g><path d="M 4.511719 -6.046875 L 4.511719 -2.90625 C 4.511719 -2.597656 4.527344 -2.382812 4.554688 -2.257812 C 4.558594 -2.246094 4.574219 -2.238281 4.59375 -2.222656 C 4.617188 -2.210938 4.664062 -2.195312 4.726562 -2.183594 C 4.828125 -2.164062 4.949219 -2.15625 5.097656 -2.15625 C 5.25 -2.15625 5.40625 -2.171875 5.566406 -2.203125 L 6.230469 -2.339844 L 6.230469 0.394531 L 5.785156 0.484375 C 5.664062 0.507812 5.449219 0.535156 5.128906 0.5625 C 4.816406 0.585938 4.507812 0.601562 4.195312 0.601562 C 3.320312 0.601562 2.652344 0.460938 2.191406 0.175781 C 1.695312 -0.125 1.382812 -0.511719 1.257812 -0.980469 C 1.15625 -1.355469 1.105469 -1.828125 1.105469 -2.402344 L 1.105469 -6.046875 L 1.660156 -6.046875 L 1.660156 -5.492188 L -0.15625 -5.492188 L -0.15625 -8.394531 L 1.660156 -8.394531 L 1.660156 -7.839844 L 1.105469 -7.839844 L 1.105469 -10.929688 L 4.511719 -10.929688 L 4.511719 -7.839844 L 3.957031 -7.839844 L 3.957031 -8.394531 L 6.230469 -8.394531 L 6.230469 -5.492188 L 3.957031 -5.492188 L 3.957031 -6.046875 Z M 3.402344 -6.601562 L 5.675781 -6.601562 L 5.675781 -6.046875 L 5.121094 -6.046875 L 5.121094 -7.839844 L 5.675781 -7.839844 L 5.675781 -7.285156 L 3.402344 -7.285156 L 3.402344 -10.375 L 3.957031 -10.375 L 3.957031 -9.820312 L 1.660156 -9.820312 L 1.660156 -10.375 L 2.214844 -10.375 L 2.214844 -7.285156 L 0.398438 -7.285156 L 0.398438 -7.839844 L 0.957031 -7.839844 L 0.957031 -6.046875 L 0.398438 -6.046875 L 0.398438 -6.601562 L 2.214844 -6.601562 L 2.214844 -2.402344 C 2.214844 -1.925781 2.253906 -1.550781 2.328125 -1.273438 C 2.378906 -1.089844 2.527344 -0.921875 2.773438 -0.769531 C 3.054688 -0.597656 3.527344 -0.511719 4.195312 -0.511719 C 4.476562 -0.511719 4.757812 -0.523438 5.039062 -0.546875 C 5.3125 -0.570312 5.488281 -0.589844 5.566406 -0.605469 L 5.675781 -0.0585938 L 5.121094 -0.0585938 L 5.121094 -1.660156 L 5.675781 -1.660156 L 5.785156 -1.113281 C 5.550781 -1.066406 5.324219 -1.042969 5.097656 -1.042969 C 4.628906 -1.042969 4.269531 -1.121094 4.015625 -1.273438 C 3.71875 -1.457031 3.535156 -1.707031 3.464844 -2.027344 C 3.421875 -2.226562 3.402344 -2.519531 3.402344 -2.90625 Z M 3.402344 -6.601562 "/></g></g></g><g fill="#2563eb" fill-opacity="1"><g transform="translate(39.462332, 22.166826)"><g><path d="M 0.84375 -8.394531 L 3.699219 -8.394531 L 3.699219 -6.59375 L 3.140625 -6.59375 L 3.140625 -7.152344 L 3.261719 -7.152344 L 3.261719 -6.59375 L 2.734375 -6.777344 C 2.894531 -7.238281 3.199219 -7.625 3.648438 -7.933594 C 4.09375 -8.242188 4.65625 -8.394531 5.335938 -8.394531 C 5.539062 -8.394531 5.734375 -8.378906 5.917969 -8.339844 L 6.386719 -8.246094 L 6.226562 -4.90625 L 5.523438 -5.152344 C 5.355469 -5.210938 5.15625 -5.238281 4.921875 -5.238281 C 4.464844 -5.238281 4.152344 -5.144531 3.980469 -4.949219 C 3.792969 -4.742188 3.699219 -4.339844 3.699219 -3.75 L 3.699219 0.554688 L 0.289062 0.554688 L 0.289062 -8.394531 Z M 0.84375 -7.285156 L 0.84375 -7.839844 L 1.402344 -7.839844 L 1.402344 0 L 0.84375 0 L 0.84375 -0.554688 L 3.140625 -0.554688 L 3.140625 0 L 2.585938 0 L 2.585938 -3.75 C 2.585938 -4.621094 2.773438 -5.269531 3.148438 -5.691406 C 3.542969 -6.128906 4.132812 -6.351562 4.921875 -6.351562 C 5.28125 -6.351562 5.601562 -6.300781 5.886719 -6.203125 L 5.707031 -5.675781 L 5.152344 -5.703125 L 5.253906 -7.824219 L 5.808594 -7.796875 L 5.699219 -7.25 C 5.589844 -7.273438 5.46875 -7.285156 5.335938 -7.285156 C 4.886719 -7.285156 4.535156 -7.195312 4.28125 -7.019531 C 4.03125 -6.847656 3.867188 -6.644531 3.785156 -6.414062 L 3.65625 -6.039062 L 2.585938 -6.039062 L 2.585938 -7.839844 L 3.140625 -7.839844 L 3.140625 -7.285156 Z M 0.84375 -7.285156 "/></g></g></g><g fill="#2563eb" fill-opacity="1"><g transform="translate(45.342277, 22.166826)"><g><path d="M 3.511719 0.6875 C 2.941406 0.6875 2.429688 0.578125 1.980469 0.355469 C 1.523438 0.132812 1.132812 -0.203125 0.816406 -0.648438 C 0.21875 -1.480469 -0.0820312 -2.574219 -0.0820312 -3.925781 C -0.0820312 -5.292969 0.226562 -6.394531 0.84375 -7.230469 C 1.496094 -8.117188 2.398438 -8.558594 3.542969 -8.558594 C 4.335938 -8.558594 4.964844 -8.371094 5.421875 -7.996094 C 5.84375 -7.652344 6.140625 -7.292969 6.3125 -6.917969 L 5.808594 -6.683594 L 5.808594 -7.238281 L 5.929688 -7.238281 L 5.929688 -6.683594 L 5.371094 -6.683594 L 5.371094 -8.394531 L 8.8125 -8.394531 L 8.8125 0.554688 L 5.371094 0.554688 L 5.371094 -1.261719 L 5.929688 -1.261719 L 5.929688 -0.703125 L 5.808594 -0.703125 L 5.808594 -1.261719 L 6.3125 -1.023438 C 6.128906 -0.632812 5.828125 -0.261719 5.40625 0.0976562 C 4.941406 0.492188 4.3125 0.6875 3.511719 0.6875 Z M 3.511719 -0.421875 C 4.039062 -0.421875 4.429688 -0.53125 4.6875 -0.75 C 4.984375 -1.003906 5.191406 -1.253906 5.304688 -1.496094 L 5.457031 -1.816406 L 6.484375 -1.816406 L 6.484375 0 L 5.929688 0 L 5.929688 -0.554688 L 8.253906 -0.554688 L 8.253906 0 L 7.699219 0 L 7.699219 -7.839844 L 8.253906 -7.839844 L 8.253906 -7.285156 L 5.929688 -7.285156 L 5.929688 -7.839844 L 6.484375 -7.839844 L 6.484375 -6.128906 L 5.457031 -6.128906 L 5.304688 -6.449219 C 5.203125 -6.667969 5.007812 -6.898438 4.714844 -7.136719 C 4.464844 -7.34375 4.070312 -7.449219 3.542969 -7.449219 C 2.769531 -7.449219 2.167969 -7.15625 1.738281 -6.570312 C 1.265625 -5.929688 1.03125 -5.050781 1.03125 -3.925781 C 1.03125 -2.8125 1.257812 -1.933594 1.71875 -1.296875 C 1.929688 -1.003906 2.179688 -0.785156 2.46875 -0.640625 C 2.765625 -0.496094 3.113281 -0.421875 3.511719 -0.421875 Z M 4.386719 -2.273438 C 4.550781 -2.273438 4.6875 -2.304688 4.800781 -2.367188 C 4.90625 -2.429688 5 -2.527344 5.078125 -2.660156 C 5.285156 -3.011719 5.386719 -3.441406 5.386719 -3.941406 C 5.386719 -4.433594 5.285156 -4.859375 5.078125 -5.210938 C 5 -5.34375 4.90625 -5.441406 4.800781 -5.5 C 4.6875 -5.5625 4.550781 -5.59375 4.386719 -5.59375 C 4.210938 -5.59375 4.0625 -5.5625 3.945312 -5.5 C 3.835938 -5.441406 3.746094 -5.351562 3.671875 -5.226562 C 3.472656 -4.882812 3.371094 -4.460938 3.371094 -3.957031 C 3.371094 -3.441406 3.472656 -3.007812 3.675781 -2.65625 C 3.75 -2.523438 3.84375 -2.429688 3.949219 -2.371094 C 4.066406 -2.308594 4.210938 -2.273438 4.386719 -2.273438 Z M 4.386719 -1.164062 C 4.019531 -1.164062 3.695312 -1.242188 3.414062 -1.398438 C 3.121094 -1.558594 2.890625 -1.792969 2.710938 -2.101562 C 2.410156 -2.628906 2.261719 -3.246094 2.261719 -3.957031 C 2.261719 -4.660156 2.410156 -5.269531 2.714844 -5.785156 C 2.894531 -6.089844 3.128906 -6.320312 3.417969 -6.476562 C 3.699219 -6.628906 4.023438 -6.707031 4.386719 -6.707031 C 4.746094 -6.707031 5.066406 -6.628906 5.34375 -6.46875 C 5.628906 -6.3125 5.859375 -6.078125 6.039062 -5.773438 C 6.34375 -5.246094 6.5 -4.636719 6.5 -3.941406 C 6.5 -3.238281 6.34375 -2.625 6.039062 -2.097656 C 5.859375 -1.792969 5.628906 -1.558594 5.34375 -1.398438 C 5.066406 -1.242188 4.746094 -1.164062 4.386719 -1.164062 Z M 4.386719 -1.164062 "/></g></g></g><g fill="#2563eb" fill-opacity="1"><g transform="translate(54.199074, 22.166826)"><g><path d="M 0.222656 -8.394531 L 2.796875 -8.394531 L 4.636719 -2.492188 L 4.105469 -2.328125 L 4.105469 -2.882812 L 4.195312 -2.882812 L 4.195312 -2.328125 L 3.664062 -2.488281 L 5.457031 -8.394531 L 8.8125 -8.394531 L 5.917969 0.554688 L 2.335938 0.554688 L -0.539062 -8.394531 Z M 0.222656 -7.285156 L 0.222656 -7.839844 L 0.75 -8.011719 L 3.269531 -0.171875 L 2.742188 0 L 2.742188 -0.554688 L 5.511719 -0.554688 L 5.511719 0 L 4.984375 -0.171875 L 7.519531 -8.011719 L 8.046875 -7.839844 L 8.046875 -7.285156 L 5.867188 -7.285156 L 5.867188 -7.839844 L 6.402344 -7.679688 L 4.605469 -1.769531 L 3.695312 -1.769531 L 1.855469 -7.675781 L 2.386719 -7.839844 L 2.386719 -7.285156 Z M 0.222656 -7.285156 "/></g></g></g><g fill="#2563eb" fill-opacity="1"><g transform="translate(62.285753, 22.166826)"><g><path d="M 4.3125 0.6875 C 3.371094 0.6875 2.566406 0.46875 1.90625 0.0234375 C 1.25 -0.414062 0.761719 -0.992188 0.445312 -1.710938 C 0.144531 -2.398438 -0.0078125 -3.136719 -0.0078125 -3.925781 C -0.0078125 -4.71875 0.144531 -5.457031 0.445312 -6.144531 C 0.761719 -6.859375 1.246094 -7.441406 1.902344 -7.886719 C 2.566406 -8.335938 3.378906 -8.558594 4.34375 -8.558594 C 5.609375 -8.558594 6.625 -8.152344 7.386719 -7.339844 C 8.136719 -6.535156 8.515625 -5.398438 8.515625 -3.925781 L 8.515625 -2.734375 L 2.773438 -2.734375 L 2.773438 -3.289062 L 3.328125 -3.289062 L 3.328125 -3.171875 C 3.328125 -2.917969 3.417969 -2.695312 3.59375 -2.511719 C 3.765625 -2.335938 3.992188 -2.246094 4.269531 -2.246094 C 4.496094 -2.246094 4.679688 -2.292969 4.828125 -2.386719 C 4.960938 -2.472656 5.058594 -2.589844 5.113281 -2.734375 L 5.25 -3.089844 L 8.613281 -3.089844 L 8.4375 -2.398438 C 8.210938 -1.496094 7.738281 -0.757812 7.027344 -0.183594 C 6.308594 0.398438 5.402344 0.6875 4.3125 0.6875 Z M 4.3125 -0.421875 C 5.140625 -0.421875 5.8125 -0.628906 6.328125 -1.046875 C 6.847656 -1.46875 7.195312 -2.011719 7.359375 -2.671875 L 7.898438 -2.535156 L 7.898438 -1.980469 L 5.632812 -1.980469 L 5.632812 -2.535156 L 6.152344 -2.335938 C 6.007812 -1.964844 5.769531 -1.671875 5.429688 -1.453125 C 5.101562 -1.238281 4.714844 -1.132812 4.269531 -1.132812 C 3.675781 -1.132812 3.183594 -1.335938 2.792969 -1.742188 C 2.410156 -2.140625 2.214844 -2.617188 2.214844 -3.171875 L 2.214844 -3.847656 L 7.957031 -3.847656 L 7.957031 -3.289062 L 7.402344 -3.289062 L 7.402344 -3.925781 C 7.402344 -5.105469 7.128906 -5.988281 6.574219 -6.578125 C 6.03125 -7.15625 5.289062 -7.449219 4.34375 -7.449219 C 3.605469 -7.449219 3 -7.285156 2.527344 -6.964844 C 2.046875 -6.640625 1.695312 -6.21875 1.464844 -5.695312 C 1.222656 -5.152344 1.105469 -4.5625 1.105469 -3.925781 C 1.105469 -3.292969 1.222656 -2.703125 1.464844 -2.15625 C 1.691406 -1.640625 2.046875 -1.21875 2.523438 -0.898438 C 3 -0.582031 3.59375 -0.421875 4.3125 -0.421875 Z M 5.195312 -4.761719 C 5.1875 -5.144531 5.105469 -5.410156 4.953125 -5.5625 C 4.800781 -5.710938 4.582031 -5.789062 4.296875 -5.789062 C 4.011719 -5.789062 3.792969 -5.707031 3.640625 -5.546875 C 3.480469 -5.375 3.394531 -5.113281 3.386719 -4.761719 L 2.832031 -4.773438 L 2.832031 -5.328125 L 5.75 -5.328125 L 5.75 -4.773438 Z M 6.316406 -4.214844 L 2.265625 -4.214844 L 2.273438 -4.785156 C 2.289062 -5.421875 2.472656 -5.929688 2.835938 -6.308594 C 3.207031 -6.703125 3.695312 -6.898438 4.296875 -6.898438 C 4.882812 -6.898438 5.363281 -6.71875 5.730469 -6.355469 C 6.101562 -5.992188 6.292969 -5.46875 6.304688 -4.78125 Z M 6.316406 -4.214844 "/></g></g></g><g fill="#2563eb" fill-opacity="1"><g transform="translate(70.791796, 22.166826)"><g/></g></g><g fill="#ffffff" fill-opacity="1"><g transform="translate(25.791796, 22.166826)"><g><path d="M 3.734375 0.140625 C 3.078125 0.140625 2.503906 0.015625 2.015625 -0.234375 C 1.535156 -0.484375 1.164062 -0.804688 0.90625 -1.203125 C 0.65625 -1.609375 0.53125 -2.03125 0.53125 -2.46875 L 0.53125 -2.578125 L 2.765625 -2.578125 L 2.765625 -2.484375 C 2.765625 -2.265625 2.851562 -2.066406 3.03125 -1.890625 C 3.21875 -1.710938 3.472656 -1.625 3.796875 -1.625 C 4.078125 -1.625 4.300781 -1.691406 4.46875 -1.828125 C 4.632812 -1.960938 4.71875 -2.140625 4.71875 -2.359375 C 4.71875 -2.554688 4.632812 -2.710938 4.46875 -2.828125 C 4.3125 -2.953125 4.117188 -3.03125 3.890625 -3.0625 L 3.046875 -3.25 C 2.472656 -3.34375 1.941406 -3.570312 1.453125 -3.9375 C 0.972656 -4.300781 0.734375 -4.859375 0.734375 -5.609375 C 0.734375 -6.367188 1.003906 -6.957031 1.546875 -7.375 C 2.097656 -7.789062 2.800781 -8 3.65625 -8 C 4.300781 -8 4.851562 -7.882812 5.3125 -7.65625 C 5.78125 -7.4375 6.132812 -7.140625 6.375 -6.765625 C 6.613281 -6.398438 6.734375 -6.007812 6.734375 -5.59375 L 6.734375 -5.515625 L 4.5 -5.515625 L 4.5 -5.5625 C 4.5 -5.757812 4.421875 -5.941406 4.265625 -6.109375 C 4.117188 -6.273438 3.894531 -6.359375 3.59375 -6.359375 C 3.332031 -6.359375 3.125 -6.296875 2.96875 -6.171875 C 2.820312 -6.046875 2.75 -5.878906 2.75 -5.671875 C 2.75 -5.285156 3.066406 -5.03125 3.703125 -4.90625 L 4.625 -4.703125 C 5.25 -4.566406 5.773438 -4.3125 6.203125 -3.9375 C 6.628906 -3.570312 6.84375 -3.054688 6.84375 -2.390625 C 6.84375 -1.867188 6.707031 -1.414062 6.4375 -1.03125 C 6.164062 -0.65625 5.789062 -0.363281 5.3125 -0.15625 C 4.84375 0.0390625 4.316406 0.140625 3.734375 0.140625 Z M 3.734375 0.140625 "/></g></g></g><g fill="#ffffff" fill-opacity="1"><g transform="translate(33.093607, 22.166826)"><g><path d="M 3.953125 -6.046875 L 3.953125 -2.90625 C 3.953125 -2.5625 3.96875 -2.304688 4 -2.140625 C 4.039062 -1.972656 4.140625 -1.835938 4.296875 -1.734375 C 4.460938 -1.640625 4.726562 -1.59375 5.09375 -1.59375 C 5.28125 -1.59375 5.472656 -1.613281 5.671875 -1.65625 L 5.671875 -0.0625 C 5.578125 -0.0390625 5.378906 -0.0195312 5.078125 0 C 4.785156 0.03125 4.492188 0.046875 4.203125 0.046875 C 3.429688 0.046875 2.859375 -0.0664062 2.484375 -0.296875 C 2.109375 -0.523438 1.875 -0.800781 1.78125 -1.125 C 1.695312 -1.445312 1.65625 -1.875 1.65625 -2.40625 L 1.65625 -6.046875 L 0.40625 -6.046875 L 0.40625 -7.84375 L 1.65625 -7.84375 L 1.65625 -10.375 L 3.953125 -10.375 L 3.953125 -7.84375 L 5.671875 -7.84375 L 5.671875 -6.046875 Z M 3.953125 -6.046875 "/></g></g></g><g fill="#ffffff" fill-opacity="1"><g transform="translate(39.462332, 22.166826)"><g><path d="M 0.84375 -7.84375 L 3.140625 -7.84375 L 3.140625 -6.59375 L 3.265625 -6.59375 C 3.378906 -6.945312 3.613281 -7.242188 3.96875 -7.484375 C 4.320312 -7.722656 4.78125 -7.84375 5.34375 -7.84375 C 5.507812 -7.84375 5.664062 -7.828125 5.8125 -7.796875 L 5.703125 -5.671875 C 5.484375 -5.753906 5.222656 -5.796875 4.921875 -5.796875 C 4.296875 -5.796875 3.84375 -5.632812 3.5625 -5.3125 C 3.28125 -5 3.140625 -4.476562 3.140625 -3.75 L 3.140625 0 L 0.84375 0 Z M 0.84375 -7.84375 "/></g></g></g><g fill="#ffffff" fill-opacity="1"><g transform="translate(45.342277, 22.166826)"><g><path d="M 3.515625 0.140625 C 2.546875 0.140625 1.796875 -0.226562 1.265625 -0.96875 C 0.734375 -1.707031 0.46875 -2.691406 0.46875 -3.921875 C 0.46875 -5.171875 0.738281 -6.160156 1.28125 -6.890625 C 1.832031 -7.628906 2.585938 -8 3.546875 -8 C 4.203125 -8 4.707031 -7.851562 5.0625 -7.5625 C 5.425781 -7.269531 5.675781 -6.976562 5.8125 -6.6875 L 5.9375 -6.6875 L 5.9375 -7.84375 L 8.265625 -7.84375 L 8.265625 0 L 5.9375 0 L 5.9375 -1.265625 L 5.8125 -1.265625 C 5.664062 -0.941406 5.410156 -0.625 5.046875 -0.3125 C 4.679688 -0.0078125 4.171875 0.140625 3.515625 0.140625 Z M 4.390625 -1.71875 C 4.910156 -1.71875 5.300781 -1.9375 5.5625 -2.375 C 5.820312 -2.820312 5.953125 -3.34375 5.953125 -3.9375 C 5.953125 -4.53125 5.820312 -5.046875 5.5625 -5.484375 C 5.300781 -5.929688 4.910156 -6.15625 4.390625 -6.15625 C 3.847656 -6.15625 3.445312 -5.9375 3.1875 -5.5 C 2.9375 -5.070312 2.8125 -4.554688 2.8125 -3.953125 C 2.8125 -3.347656 2.9375 -2.820312 3.1875 -2.375 C 3.445312 -1.9375 3.847656 -1.71875 4.390625 -1.71875 Z M 4.390625 -1.71875 "/></g></g></g><g fill="#ffffff" fill-opacity="1"><g transform="translate(54.199074, 22.166826)"><g><path d="M 0.21875 -7.84375 L 2.390625 -7.84375 L 4.109375 -2.328125 L 4.203125 -2.328125 L 5.875 -7.84375 L 8.046875 -7.84375 L 5.515625 0 L 2.75 0 Z M 0.21875 -7.84375 "/></g></g></g><g fill="#ffffff" fill-opacity="1"><g transform="translate(62.285753, 22.166826)"><g><path d="M 4.3125 0.140625 C 3.476562 0.140625 2.773438 -0.0507812 2.203125 -0.4375 C 1.640625 -0.820312 1.222656 -1.320312 0.953125 -1.9375 C 0.679688 -2.550781 0.546875 -3.210938 0.546875 -3.921875 C 0.546875 -4.640625 0.679688 -5.304688 0.953125 -5.921875 C 1.222656 -6.535156 1.640625 -7.035156 2.203125 -7.421875 C 2.773438 -7.804688 3.488281 -8 4.34375 -8 C 5.445312 -8 6.328125 -7.648438 6.984375 -6.953125 C 7.640625 -6.265625 7.96875 -5.253906 7.96875 -3.921875 L 7.96875 -3.296875 L 2.765625 -3.296875 L 2.765625 -3.171875 C 2.765625 -2.765625 2.90625 -2.414062 3.1875 -2.125 C 3.476562 -1.832031 3.835938 -1.6875 4.265625 -1.6875 C 4.609375 -1.6875 4.894531 -1.765625 5.125 -1.921875 C 5.363281 -2.078125 5.535156 -2.28125 5.640625 -2.53125 L 7.90625 -2.53125 C 7.707031 -1.75 7.296875 -1.109375 6.671875 -0.609375 C 6.054688 -0.109375 5.269531 0.140625 4.3125 0.140625 Z M 5.75 -4.78125 C 5.738281 -5.3125 5.601562 -5.703125 5.34375 -5.953125 C 5.082031 -6.210938 4.734375 -6.34375 4.296875 -6.34375 C 3.859375 -6.34375 3.503906 -6.203125 3.234375 -5.921875 C 2.972656 -5.648438 2.835938 -5.269531 2.828125 -4.78125 Z M 5.75 -4.78125 "/></g></g></g><g fill="#ffffff" fill-opacity="1"><g transform="translate(70.791796, 22.166826)"><g/></g></g><g clip-path="url(#375a5c698b)"><g transform="matrix(1, 0, 0, 1, 1, 0.000000000000005692)"><g clip-path="url(#76840f6548)"><g fill="#2563eb" fill-opacity="1"><g transform="translate(12.799134, 23.564287)"><g><path d="M 11.25 0 L 1.015625 0 L 1.015625 -15.609375 L 10.671875 -15.609375 L 10.671875 -12.578125 L 4.46875 -12.578125 L 4.46875 -9.34375 L 9.984375 -9.34375 L 9.984375 -6.375 L 4.46875 -6.375 L 4.46875 -3.03125 L 11.25 -3.03125 Z M 11.25 0 "/></g></g></g><g clip-path="url(#7a84081e8f)"><path fill="#ffffff" d="M 2.820312 21.136719 C 4.160156 19.648438 5.851562 18.667969 7.65625 18.207031 C 9.636719 17.699219 11.375 16.503906 12.476562 14.78125 C 15.050781 10.742188 19.667969 8.085938 25.003906 8.355469 C 26.058594 8.410156 27.089844 8.585938 28.078125 8.867188 L 28.078125 -2.449219 L -7.601562 -2.449219 L -7.601562 33.226562 L 2.054688 33.226562 C -0.453125 29.597656 -0.253906 24.554688 2.820312 21.136719 Z M 2.820312 21.136719 " fill-opacity="1" fill-rule="nonzero"/></g><g clip-path="url(#2c544c06cf)"><g clip-path="url(#cda15f5b18)"><g clip-path="url(#4d12ba63d1)"><path fill="#2563eb" d="M 33.289062 6.429688 C 33.253906 6.1875 32.070312 6.171875 31.925781 6.171875 C 31.191406 6.164062 30.582031 6.277344 30.148438 6.386719 C 29.949219 6.105469 29.75 5.824219 29.546875 5.546875 C 29.632812 5.53125 29.71875 5.515625 29.804688 5.5 C 29.792969 5.4375 29.769531 5.34375 29.714844 5.246094 C 29.648438 5.128906 29.570312 5.050781 29.515625 5.007812 C 29.433594 5.027344 29.351562 5.050781 29.273438 5.070312 C 28.910156 4.59375 28.550781 4.113281 28.191406 3.636719 C 28.1875 3.632812 28.183594 3.632812 28.183594 3.632812 C 27.855469 3.582031 27.519531 3.59375 27.1875 3.585938 C 27.601562 4.257812 28.015625 4.929688 28.429688 5.601562 L 28.273438 5.648438 C 28.292969 5.683594 28.316406 5.71875 28.335938 5.753906 C 28.398438 5.757812 28.464844 5.757812 28.527344 5.761719 C 28.675781 6 28.824219 6.242188 28.972656 6.480469 L 25.621094 7.253906 C 25.421875 7.003906 25.226562 6.75 25.027344 6.496094 C 24.785156 6.464844 24.546875 6.4375 24.304688 6.40625 L 24.964844 7.519531 C 24.867188 7.558594 24.765625 7.597656 24.664062 7.636719 C 24.667969 7.664062 24.671875 7.691406 24.675781 7.71875 C 24.777344 7.734375 24.878906 7.75 24.980469 7.761719 C 24.84375 8.140625 24.703125 8.519531 24.5625 8.902344 C 24.792969 8.832031 25.023438 8.761719 25.25 8.6875 C 25.398438 8.386719 25.546875 8.085938 25.695312 7.785156 L 29.121094 7.582031 L 28.902344 8.3125 L 28.75 8.359375 L 28.730469 8.433594 C 28.757812 8.449219 28.785156 8.464844 28.8125 8.484375 C 28.527344 9.304688 28.242188 10.128906 27.957031 10.949219 C 28.074219 10.921875 28.171875 10.894531 28.238281 10.871094 C 28.453125 10.804688 28.667969 10.722656 28.886719 10.667969 C 28.917969 10.65625 28.945312 10.652344 28.976562 10.644531 C 29.25 10.046875 29.519531 9.449219 29.792969 8.851562 C 29.875 8.847656 29.960938 8.84375 30.042969 8.839844 C 30.085938 8.785156 30.144531 8.695312 30.179688 8.570312 C 30.210938 8.472656 30.214844 8.382812 30.214844 8.324219 C 30.128906 8.3125 30.042969 8.300781 29.960938 8.289062 C 30.078125 7.980469 30.199219 7.671875 30.316406 7.363281 C 30.808594 7.332031 31.488281 7.246094 32.253906 6.984375 C 32.574219 6.875 33.316406 6.621094 33.289062 6.429688 Z M 33.289062 6.429688 " fill-opacity="1" fill-rule="nonzero"/></g></g></g><g clip-path="url(#f6f5496e88)"><g clip-path="url(#521ecdd6f4)"><g clip-path="url(#6826467bbd)"><path fill="#2563eb" d="M 14.375 11.039062 C 13.410156 11.839844 12.359375 12.960938 12.039062 14.199219 C 11.882812 14.753906 11.855469 15.390625 12.144531 15.910156 C 12.421875 16.417969 12.941406 16.742188 13.488281 16.886719 C 12.824219 16.597656 12.265625 16.070312 12.207031 15.320312 C 12.175781 14.972656 12.253906 14.625 12.367188 14.300781 C 12.789062 13.039062 14.070312 11.878906 15.125 11.109375 C 16.222656 10.3125 17.429688 9.667969 18.6875 9.148438 C 19.824219 8.683594 21.003906 8.324219 22.207031 8.066406 C 22.878906 7.917969 23.5625 7.808594 24.246094 7.71875 C 20.78125 7.652344 17.070312 8.851562 14.375 11.039062 Z M 14.375 11.039062 " fill-opacity="1" fill-rule="nonzero"/></g></g></g></g></g></g></svg>